{
  "accessors": [
    {
      "bufferView": 2,
      "componentType": 5126,
      "count": 15059,
      "max": [
        6.166238784790039,
        0.8635377883911133,
        6.087836265563965
      ],
      "min": [
        -6.166238784790039,
        -1.2597001791000366,
        -3.743180274963379
      ],
      "type": "VEC3"
    },
    {
      "bufferView": 2,
      "byteOffset": 180708,
      "componentType": 5126,
      "count": 15059,
      "max": [
        1.0,
        1.0,
        0.9999240040779114
      ],
      "min": [
        -1.0,
        -1.0,
        -0.9999778270721436
      ],
      "type": "VEC3"
    },
    {
      "bufferView": 1,
      "componentType": 5126,
      "count": 15059,
      "max": [
        0.9842739105224609,
        0.9977396130561829
      ],
      "min": [
        0.06574201583862305,
        0.008735135197639465
      ],
      "type": "VEC2"
    },
    {
      "bufferView": 0,
      "componentType": 5125,
      "count": 57915,
      "type": "SCALAR"
    },
    {
      "bufferView": 2,
      "byteOffset": 361416,
      "componentType": 5126,
      "count": 15086,
      "max": [
        5.644607067108154,
        0.9965349435806274,
        6.087838172912598
      ],
      "min": [
        -5.644609451293945,
        -1.2597001791000366,
        -4.103404998779297
      ],
      "type": "VEC3"
    },
    {
      "bufferView": 2,
      "byteOffset": 542448,
      "componentType": 5126,
      "count": 15086,
      "max": [
        1.0,
        1.0,
        0.9999240040779114
      ],
      "min": [
        -1.0,
        -0.9999998807907104,
        -0.9999778866767883
      ],
      "type": "VEC3"
    },
    {
      "bufferView": 1,
      "byteOffset": 120472,
      "componentType": 5126,
      "count": 15086,
      "max": [
        0.9972122311592102,
        0.9977396130561829
      ],
      "min": [
        0.06574201583862305,
        0.015247225761413574
      ],
      "type": "VEC2"
    },
    {
      "bufferView": 0,
      "byteOffset": 231660,
      "componentType": 5125,
      "count": 57915,
      "type": "SCALAR"
    },
    {
      "bufferView": 2,
      "byteOffset": 723480,
      "componentType": 5126,
      "count": 15078,
      "max": [
        5.644613742828369,
        0.8635379076004028,
        6.087836265563965
      ],
      "min": [
        -5.644608020782471,
        -1.2597004175186157,
        -4.076748371124268
      ],
      "type": "VEC3"
    },
    {
      "bufferView": 2,
      "byteOffset": 904416,
      "componentType": 5126,
      "count": 15078,
      "max": [
        1.0,
        1.0,
        0.9999240040779114
      ],
      "min": [
        -1.0,
        -1.0,
        -0.9999778866767883
      ],
      "type": "VEC3"
    },
    {
      "bufferView": 1,
      "byteOffset": 241160,
      "componentType": 5126,
      "count": 15078,
      "max": [
        0.989916205406189,
        0.9977396130561829
      ],
      "min": [
        0.06574201583862305,
        0.015247225761413574
      ],
      "type": "VEC2"
    },
    {
      "bufferView": 0,
      "byteOffset": 463320,
      "componentType": 5125,
      "count": 57915,
      "type": "SCALAR"
    },
    {
      "bufferView": 2,
      "byteOffset": 1085352,
      "componentType": 5126,
      "count": 120,
      "max": [
        0.3130759000778198,
        1.7583224773406982,
        0.20031513273715973
      ],
      "min": [
        -0.8234668374061584,
        -2.069910764694214,
        -0.23834218084812164
      ],
      "type": "VEC3"
    },
    {
      "bufferView": 2,
      "byteOffset": 1086792,
      "componentType": 5126,
      "count": 120,
      "max": [
        0.9954071640968323,
        1.0,
        1.0
      ],
      "min": [
        -0.9977632164955139,
        -1.0,
        -1.0
      ],
      "type": "VEC3"
    },
    {
      "bufferView": 1,
      "byteOffset": 361784,
      "componentType": 5126,
      "count": 120,
      "max": [
        0.7760834097862244,
        0.7891698479652405
      ],
      "min": [
        0.10145464539527893,
        0.022371631115674973
      ],
      "type": "VEC2"
    },
    {
      "bufferView": 0,
      "byteOffset": 694980,
      "componentType": 5125,
      "count": 168,
      "type": "SCALAR"
    },
    {
      "bufferView": 2,
      "byteOffset": 1088232,
      "componentType": 5126,
      "count": 120,
      "max": [
        0.3130759000778198,
        1.7583224773406982,
        0.20031513273715973
      ],
      "min": [
        -0.8234668374061584,
        -2.069910764694214,
        -0.23834218084812164
      ],
      "type": "VEC3"
    },
    {
      "bufferView": 2,
      "byteOffset": 1089672,
      "componentType": 5126,
      "count": 120,
      "max": [
        0.9954071640968323,
        1.0,
        1.0
      ],
      "min": [
        -0.9977632164955139,
        -1.0,
        -1.0
      ],
      "type": "VEC3"
    },
    {
      "bufferView": 1,
      "byteOffset": 362744,
      "componentType": 5126,
      "count": 120,
      "max": [
        0.7760834097862244,
        0.7891698479652405
      ],
      "min": [
        0.10145464539527893,
        0.022371631115674973
      ],
      "type": "VEC2"
    },
    {
      "bufferView": 0,
      "byteOffset": 695652,
      "componentType": 5125,
      "count": 168,
      "type": "SCALAR"
    },
    {
      "bufferView": 2,
      "byteOffset": 1091112,
      "componentType": 5126,
      "count": 120,
      "max": [
        0.3130759000778198,
        1.7583224773406982,
        0.20031513273715973
      ],
      "min": [
        -0.8234668374061584,
        -2.069910764694214,
        -0.23834218084812164
      ],
      "type": "VEC3"
    },
    {
      "bufferView": 2,
      "byteOffset": 1092552,
      "componentType": 5126,
      "count": 120,
      "max": [
        0.9954071640968323,
        1.0,
        1.0
      ],
      "min": [
        -0.9977632164955139,
        -1.0,
        -1.0
      ],
      "type": "VEC3"
    },
    {
      "bufferView": 1,
      "byteOffset": 363704,
      "componentType": 5126,
      "count": 120,
      "max": [
        0.7760834097862244,
        0.7891698479652405
      ],
      "min": [
        0.10145464539527893,
        0.022371631115674973
      ],
      "type": "VEC2"
    },
    {
      "bufferView": 0,
      "byteOffset": 696324,
      "componentType": 5125,
      "count": 168,
      "type": "SCALAR"
    },
    {
      "bufferView": 2,
      "byteOffset": 1093992,
      "componentType": 5126,
      "count": 120,
      "max": [
        0.3130759000778198,
        1.7583224773406982,
        0.20031513273715973
      ],
      "min": [
        -0.8234668374061584,
        -2.069910764694214,
        -0.23834218084812164
      ],
      "type": "VEC3"
    },
    {
      "bufferView": 2,
      "byteOffset": 1095432,
      "componentType": 5126,
      "count": 120,
      "max": [
        0.9954071640968323,
        1.0,
        1.0
      ],
      "min": [
        -0.9977632164955139,
        -1.0,
        -1.0
      ],
      "type": "VEC3"
    },
    {
      "bufferView": 1,
      "byteOffset": 364664,
      "componentType": 5126,
      "count": 120,
      "max": [
        0.7760834097862244,
        0.7891698479652405
      ],
      "min": [
        0.10145464539527893,
        0.022371631115674973
      ],
      "type": "VEC2"
    },
    {
      "bufferView": 0,
      "byteOffset": 696996,
      "componentType": 5125,
      "count": 168,
      "type": "SCALAR"
    },
    {
      "bufferView": 2,
      "byteOffset": 1096872,
      "componentType": 5126,
      "count": 120,
      "max": [
        0.3130759000778198,
        1.7583224773406982,
        0.20031513273715973
      ],
      "min": [
        -0.8234668374061584,
        -2.069910764694214,
        -0.23834218084812164
      ],
      "type": "VEC3"
    },
    {
      "bufferView": 2,
      "byteOffset": 1098312,
      "componentType": 5126,
      "count": 120,
      "max": [
        0.9954071640968323,
        1.0,
        1.0
      ],
      "min": [
        -0.9977632164955139,
        -1.0,
        -1.0
      ],
      "type": "VEC3"
    },
    {
      "bufferView": 1,
      "byteOffset": 365624,
      "componentType": 5126,
      "count": 120,
      "max": [
        0.7760834097862244,
        0.7891698479652405
      ],
      "min": [
        0.10145464539527893,
        0.022371631115674973
      ],
      "type": "VEC2"
    },
    {
      "bufferView": 0,
      "byteOffset": 697668,
      "componentType": 5125,
      "count": 168,
      "type": "SCALAR"
    },
    {
      "bufferView": 2,
      "byteOffset": 1099752,
      "componentType": 5126,
      "count": 120,
      "max": [
        0.3130759000778198,
        1.7583224773406982,
        0.20031513273715973
      ],
      "min": [
        -0.8234668374061584,
        -2.069910764694214,
        -0.23834218084812164
      ],
      "type": "VEC3"
    },
    {
      "bufferView": 2,
      "byteOffset": 1101192,
      "componentType": 5126,
      "count": 120,
      "max": [
        0.9954071640968323,
        1.0,
        1.0
      ],
      "min": [
        -0.9977632164955139,
        -1.0,
        -1.0
      ],
      "type": "VEC3"
    },
    {
      "bufferView": 1,
      "byteOffset": 366584,
      "componentType": 5126,
      "count": 120,
      "max": [
        0.7760834097862244,
        0.7891698479652405
      ],
      "min": [
        0.10145464539527893,
        0.022371631115674973
      ],
      "type": "VEC2"
    },
    {
      "bufferView": 0,
      "byteOffset": 698340,
      "componentType": 5125,
      "count": 168,
      "type": "SCALAR"
    },
    {
      "bufferView": 2,
      "byteOffset": 1102632,
      "componentType": 5126,
      "count": 120,
      "max": [
        0.3130759000778198,
        1.7583224773406982,
        0.20031513273715973
      ],
      "min": [
        -0.8234668374061584,
        -2.069910764694214,
        -0.23834218084812164
      ],
      "type": "VEC3"
    },
    {
      "bufferView": 2,
      "byteOffset": 1104072,
      "componentType": 5126,
      "count": 120,
      "max": [
        0.9954071640968323,
        1.0,
        1.0
      ],
      "min": [
        -0.9977632164955139,
        -1.0,
        -1.0
      ],
      "type": "VEC3"
    },
    {
      "bufferView": 1,
      "byteOffset": 367544,
      "componentType": 5126,
      "count": 120,
      "max": [
        0.7760834097862244,
        0.7891698479652405
      ],
      "min": [
        0.10145464539527893,
        0.022371631115674973
      ],
      "type": "VEC2"
    },
    {
      "bufferView": 0,
      "byteOffset": 699012,
      "componentType": 5125,
      "count": 168,
      "type": "SCALAR"
    }
  ],
  "asset": {
    "extras": {
      "author": "Ergoni (https://sketchfab.com/Ergoni)",
      "license": "CC-BY-4.0 (http://creativecommons.org/licenses/by/4.0/)",
      "source": "https://sketchfab.com/3d-models/rotom-game-boy-9364c2b081ae4fbd9147737d1c7c6fc7",
      "title": "Rotom Game Boy"
    },
    "generator": "Sketchfab-13.97.0",
    "version": "2.0"
  },
  "bufferViews": [
    {
      "buffer": 0,
      "byteLength": 699684,
      "name": "floatBufferViews",
      "target": 34963
    },
    {
      "buffer": 0,
      "byteLength": 368504,
      "byteOffset": 699684,
      "byteStride": 8,
      "name": "floatBufferViews",
      "target": 34962
    },
    {
      "buffer": 0,
      "byteLength": 1105512,
      "byteOffset": 1068188,
      "byteStride": 12,
      "name": "floatBufferViews",
      "target": 34962
    }
  ],
  "buffers": [
    {
      "byteLength": 2173700,
      "uri": "scene.bin"
    }
  ],
  "extensionsUsed": [
    "KHR_materials_unlit"
  ],
  "images": [
    {
      "uri": "textures/Rotom_baseColor.png"
    }
  ],
  "materials": [
    {
      "emissiveFactor": [
        0.5323582558118312,
        0.5323582558118312,
        0.5323582558118312
      ],
      "emissiveTexture": {
        "index": 0
      },
      "extensions": {
        "KHR_materials_unlit": {}
      },
      "name": "Rotom",
      "pbrMetallicRoughness": {
        "baseColorTexture": {
          "index": 0
        },
        "metallicFactor": 0.0
      }
    }
  ],
  "meshes": [
    {
      "name": "Rotom_Red_Rotom_0",
      "primitives": [
        {
          "attributes": {
            "NORMAL": 1,
            "POSITION": 0,
            "TEXCOORD_0": 2
          },
          "indices": 3,
          "material": 0,
          "mode": 4
        }
      ]
    },
    {
      "name": "Rotom_Green_Rotom_0",
      "primitives": [
        {
          "attributes": {
            "NORMAL": 5,
            "POSITION": 4,
            "TEXCOORD_0": 6
          },
          "indices": 7,
          "material": 0,
          "mode": 4
        }
      ]
    },
    {
      "name": "Rotom_Blue_Rotom_0",
      "primitives": [
        {
          "attributes": {
            "NORMAL": 9,
            "POSITION": 8,
            "TEXCOORD_0": 10
          },
          "indices": 11,
          "material": 0,
          "mode": 4
        }
      ]
    },
    {
      "name": "Ray.001_Rotom_0",
      "primitives": [
        {
          "attributes": {
            "NORMAL": 13,
            "POSITION": 12,
            "TEXCOORD_0": 14
          },
          "indices": 15,
          "material": 0,
          "mode": 4
        }
      ]
    },
    {
      "name": "Ray.006_Rotom_0",
      "primitives": [
        {
          "attributes": {
            "NORMAL": 17,
            "POSITION": 16,
            "TEXCOORD_0": 18
          },
          "indices": 19,
          "material": 0,
          "mode": 4
        }
      ]
    },
    {
      "name": "Ray.004_Rotom_0",
      "primitives": [
        {
          "attributes": {
            "NORMAL": 21,
            "POSITION": 20,
            "TEXCOORD_0": 22
          },
          "indices": 23,
          "material": 0,
          "mode": 4
        }
      ]
    },
    {
      "name": "Ray.005_Rotom_0",
      "primitives": [
        {
          "attributes": {
            "NORMAL": 25,
            "POSITION": 24,
            "TEXCOORD_0": 26
          },
          "indices": 27,
          "material": 0,
          "mode": 4
        }
      ]
    },
    {
      "name": "Ray.003_Rotom_0",
      "primitives": [
        {
          "attributes": {
            "NORMAL": 29,
            "POSITION": 28,
            "TEXCOORD_0": 30
          },
          "indices": 31,
          "material": 0,
          "mode": 4
        }
      ]
    },
    {
      "name": "Ray_Rotom_0",
      "primitives": [
        {
          "attributes": {
            "NORMAL": 33,
            "POSITION": 32,
            "TEXCOORD_0": 34
          },
          "indices": 35,
          "material": 0,
          "mode": 4
        }
      ]
    },
    {
      "name": "Ray.002_Rotom_0",
      "primitives": [
        {
          "attributes": {
            "NORMAL": 37,
            "POSITION": 36,
            "TEXCOORD_0": 38
          },
          "indices": 39,
          "material": 0,
          "mode": 4
        }
      ]
    }
  ],
  "nodes": [
    {
      "children": [
        1
      ],
      "matrix": [
        1.0,
        0.0,
        0.0,
        0.0,
        0.0,
        2.220446049250313e-16,
        -1.0,
        0.0,
        0.0,
        1.0,
        2.220446049250313e-16,
        0.0,
        0.0,
        0.0,
        0.0,
        1.0
      ],
      "name": "Sketchfab_model"
    },
    {
      "children": [
        2
      ],
      "matrix": [
        0.009999999776482582,
        0.0,
        0.0,
        0.0,
        0.0,
        0.0,
        0.009999999776482582,
        0.0,
        0.0,
        -0.009999999776482582,
        0.0,
        0.0,
        0.0,
        0.0,
        0.0,
        1.0
      ],
      "name": "1ed49aa3ac06496c99a308c092a155e4.fbx"
    },
    {
      "children": [
        3,
        5,
        7,
        9,
        11,
        13,
        15,
        17,
        19,
        21
      ],
      "name": "RootNode"
    },
    {
      "children": [
        4
      ],
      "matrix": [
        95.98400196956791,
        0.0,
        -28.054792209281892,
        0.0,
        -28.054792209281864,
        -4.371139006309477e-06,
        -95.98400196956781,
        0.0,
        -1.2263139614887564e-06,
        99.9999999999999,
        -4.195594138778347e-06,
        0.0,
        -95.12666320800781,
        1312.7003173828125,
        -511.7779846191406,
        1.0
      ],
      "name": "Rotom_Red"
    },
    {
      "mesh": 0,
      "name": "Rotom_Red_Rotom_0"
    },
    {
      "children": [
        6
      ],
      "matrix": [
        76.15918907120505,
        22.379571677683863,
        -60.81885144870669,
        0.0,
        -62.62156361593456,
        1.2547344393795679,
        -77.95489344346574,
        0.0,
        -16.682856179680467,
        97.45553043829808,
        14.970033289143082,
        0.0,
        -430.7569580078125,
        585.2673950195313,
        -174.31558227539063,
        1.0
      ],
      "name": "Rotom_Green"
    },
    {
      "mesh": 1,
      "name": "Rotom_Green_Rotom_0"
    },
    {
      "children": [
        8
      ],
      "matrix": [
        78.62781553338206,
        -18.73333123687623,
        58.878921519836574,
        0.0,
        60.87068630355989,
        7.132730386875286,
        -79.01824919701622,
        0.0,
        10.603076441898034,
        97.97033430814031,
        17.011418680359757,
        0.0,
        489.6001281738281,
        874.2374267578125,
        -142.18478393554688,
        1.0
      ],
      "name": "Rotom_Blue"
    },
    {
      "mesh": 2,
      "name": "Rotom_Blue_Rotom_0"
    },
    {
      "children": [
        10
      ],
      "matrix": [
        91.75351376867177,
        -0.08185071811756262,
        39.765387104391486,
        0.0,
        7.7112400407069055,
        98.13818992707581,
        -17.59069227949238,
        0.0,
        -38.05781723153979,
        18.737373694632755,
        87.85208391612568,
        0.0,
        546.9310913085938,
        1629.4647216796875,
        -387.8049011230469,
        1.0
      ],
      "name": "Ray.001"
    },
    {
      "mesh": 3,
      "name": "Ray.001_Rotom_0"
    },
    {
      "children": [
        12
      ],
      "matrix": [
        62.36989953349757,
        35.450136782464895,
        -44.01725615119722,
        0.0,
        -35.07230513262845,
        75.68019732896379,
        11.255067735339006,
        0.0,
        43.23642981784307,
        9.757264444444475,
        69.12171291761616,
        0.0,
        -795.35009765625,
        1127.4190673828125,
        -36.12681579589844,
        1.0
      ],
      "name": "Ray.006"
    },
    {
      "mesh": 4,
      "name": "Ray.006_Rotom_0"
    },
    {
      "children": [
        14
      ],
      "matrix": [
        84.75181215167817,
        21.697398856314287,
        -9.751956283446809,
        0.0,
        -21.664821633423607,
        85.30584176674733,
        1.5157963983402443,
        0.0,
        9.584172379116279,
        0.9177341736172824,
        85.33553651443096,
        0.0,
        -786.7952270507813,
        1517.8692626953125,
        -333.22222900390625,
        1.0
      ],
      "name": "Ray.004"
    },
    {
      "mesh": 5,
      "name": "Ray.004_Rotom_0"
    },
    {
      "children": [
        16
      ],
      "matrix": [
        52.51361883402469,
        -8.533659266292032,
        -5.806114020850077,
        0.0,
        6.621728190236902,
        50.94748365222803,
        -14.990672840031047,
        0.0,
        7.724131141387173,
        13.649144650620544,
        49.8000776112495,
        0.0,
        -459.7091064453125,
        1243.991943359375,
        -325.0195617675781,
        1.0
      ],
      "name": "Ray.005"
    },
    {
      "mesh": 6,
      "name": "Ray.005_Rotom_0"
    },
    {
      "children": [
        18
      ],
      "matrix": [
        35.85363467106031,
        -43.36659660404735,
        42.768372514042134,
        0.0,
        45.8639396641053,
        51.878676937750946,
        14.155617392735278,
        0.0,
        -39.099713121562154,
        20.069851616844325,
        53.128698975592016,
        0.0,
        868.1201782226563,
        1346.9754638671875,
        78.55862426757813,
        1.0
      ],
      "name": "Ray.003"
    },
    {
      "mesh": 7,
      "name": "Ray.003_Rotom_0"
    },
    {
      "children": [
        20
      ],
      "matrix": [
        76.76086013242126,
        -21.30666256421352,
        -20.32170360576863,
        0.0,
        17.42078412806765,
        78.61018956294099,
        -16.617032500113865,
        0.0,
        23.157571300695984,
        10.934974903178327,
        76.00776495778987,
        0.0,
        129.3461151123047,
        2091.067138671875,
        -645.580078125,
        1.0
      ],
      "name": "Ray"
    },
    {
      "mesh": 8,
      "name": "Ray_Rotom_0"
    },
    {
      "children": [
        22
      ],
      "matrix": [
        58.4338484743685,
        7.115515865435807,
        -18.826948265306093,
        0.0,
        -9.30983987563537,
        60.81093771537259,
        -5.912194527716724,
        0.0,
        17.408252258121614,
        8.22015157483948,
        57.13734262413822,
        0.0,
        -240.6776123046875,
        1862.8564453125,
        -626.2570190429688,
        1.0
      ],
      "name": "Ray.002"
    },
    {
      "mesh": 9,
      "name": "Ray.002_Rotom_0"
    }
  ],
  "samplers": [
    {
      "magFilter": 9729,
      "minFilter": 9987,
      "wrapS": 10497,
      "wrapT": 10497
    }
  ],
  "scene": 0,
  "scenes": [
    {
      "name": "Sketchfab_Scene",
      "nodes": [
        0
      ]
    }
  ],
  "textures": [
    {
      "sampler": 0,
      "source": 0
    }
  ]
}
