<svg xmlns="http://www.w3.org/2000/svg" version="1.1" xmlns:xlink="http://www.w3.org/1999/xlink" xmlns:svgjs="http://svgjs.dev/svgjs" width="308.7612359841165" height="304.915625" viewBox="0 0 2000 1976"><g transform="matrix(1,0,0,1,-1.862622430526244,0.8014772958383674)"><svg viewBox="0 0 250 247" data-background-color="#ffffff" preserveAspectRatio="xMidYMid meet" height="1976" width="2000" xmlns="http://www.w3.org/2000/svg" xmlns:xlink="http://www.w3.org/1999/xlink"><g id="tight-bounds" transform="matrix(1,0,0,1,0.23314804157220692,-0.09997365579206985)"><svg viewBox="0 0 249.53391298444132 247.2" height="247.2" width="249.53391298444132"><g><svg viewBox="0 0 249.53391298444132 247.2" height="247.2" width="249.53391298444132"><g><svg viewBox="0 0 249.53391298444132 247.2" height="247.2" width="249.53391298444132"><g id="textblocktransform"><svg viewBox="0 0 249.53391298444132 247.2" height="247.2" width="249.53391298444132" id="textblock"><g><svg viewBox="0 0 249.53391298444132 247.2" height="247.2" width="249.53391298444132"><path d="M248.95 53.02C247.777 27.36 244.433 20.227 244.433 20.227 234.168-6.202 221.358-0.506 209.85 3.292 189.532 3.446 169.295 9.091 149.024 12.119 106.475 12.581 63.563 4.986 21.225 23.717 17.248 29.464-4.126 24.846 0.707 56.304 1.974 69.39 6.596 83.913 6.456 95.922 7.089 98.026 7.969 93.202 8.344 96.23 9.658 104.39 11.805 100.541 13.565 105.365 11.113 118.246 12.873 128.971 14.55 140.21 11.594 143.135 7.805 141.749 6.104 151.449 5.928 158.479 4.978 157.145 3.933 156.837 3.171 156.632 1.634 157.402 1.892 159.608 2.772 167.152-1.005 171.514 1.364 178.904-0.266 186.91 2.491 193.838 2.115 202.511 2.068 204.255 2.326 205.744 2.737 206.154 4.555 208.361 1.904 212.672 2.185 217.342 20.838 249.262 41.074 227.195 60.184 241.872 65.146 231.608 61.416 245.516 63.399 243.36 64.947 240.846 66.073 251.263 67.821 245.362 68.091 243.668 67.68 239.665 68.642 240.435 69.147 240.846 69.593 240.743 69.663 238.382 69.769 234.841 68.842 237.048 68.595 235.201 71.258 225.861 70.601 248.081 73.1 247.158 72.983 244.438 72.256 240.538 73.745 241.051 75.223 237.151 75.27 233.918 76.584 242.693 76.631 244.592 76.866 245.926 77.241 246.85 81.347 237.305 85.43 250.237 89.735 245.926 92.374 241.205 94.908 248.492 97.583 246.696 98.521 245.259 99.472 242.693 100.375 247.004 111.437 247.928 123.227 244.079 133.715 247.158 161.741 241.41 191.69 249.518 221.241 241.923 228.209 238.998 235.447 234.841 242.239 231.506 242.239 231.506 247.741 222.371 247.741 181.316S248.915 145.393 249.09 112.703C249.266 80.013 250.088 78.679 248.915 53.02Z" opacity="1" fill="#8789fe" data-fill-palette-color="tertiary"></path><g transform="matrix(1,0,0,1,55.76832,26.230666666666668)"><svg width="137.9972729844413" viewBox="1.7 -34.85 25.05 35.35" height="194.73866666666666" data-palette-color="#ffffff"><path d="M24.5-34.5Q25.55-34.35 26.15-33.85 26.75-33.35 26.75-32.2L26.75-32.2Q26.75-31.05 26.1-30.45 25.45-29.85 24.25-29.9L24.25-29.9Q20.3-30.25 16.85-30.3L16.85-30.3Q16.45-25.2 16.2-16.85L16.2-16.85Q15.9-8.75 15.9-2L15.9-2Q15.9-0.65 15.35-0.08 14.8 0.5 13.35 0.5L13.35 0.5Q11.9 0.5 11.28-0.13 10.65-0.75 10.65-2.25L10.65-2.25Q10.65-5.9 11.15-16.8L11.15-16.8Q11.5-25.25 11.85-30.25L11.85-30.25Q9.55-30.2 5.7-29.85L5.7-29.85Q5.3-29.85 4.3-29.75L4.3-29.75Q3.1-29.65 2.4-30.28 1.7-30.9 1.7-32.1L1.7-32.1Q1.7-34 3.7-34.25L3.7-34.25Q8.85-34.85 14.75-34.85L14.75-34.85Q21.55-34.85 24.5-34.5L24.5-34.5Z" opacity="1" transform="matrix(1,0,0,1,0,0)" fill="#ffffff" class="wordmark-text-0" data-fill-palette-color="quaternary" id="text-0"></path></svg></g></svg></g></svg></g></svg></g><g></g></svg></g><defs></defs></svg><rect width="249.53391298444132" height="247.2" fill="none" stroke="none" visibility="hidden"></rect></g></svg></g></svg>