<svg width="118" height="32" viewBox="0 0 118 32" fill="none" xmlns="http://www.w3.org/2000/svg">
<path d="M53.9267 8.55254V1.35254H56.2567C56.3133 1.35254 56.43 1.35421 56.6067 1.35754C56.7833 1.36087 56.9533 1.37254 57.1167 1.39254C57.6967 1.46254 58.1883 1.66421 58.5917 1.99754C58.995 2.33087 59.3017 2.75421 59.5117 3.26754C59.7217 3.78087 59.8267 4.34254 59.8267 4.95254C59.8267 5.56254 59.7217 6.12421 59.5117 6.63754C59.3017 7.15087 58.995 7.57421 58.5917 7.90754C58.1883 8.24087 57.6967 8.44254 57.1167 8.51254C56.9533 8.53254 56.7833 8.54421 56.6067 8.54754C56.43 8.55087 56.3133 8.55254 56.2567 8.55254H53.9267ZM55.3067 7.27254H56.2567C56.3467 7.27254 56.4683 7.27087 56.6217 7.26754C56.775 7.26087 56.9133 7.24587 57.0367 7.22254C57.35 7.15921 57.605 7.01254 57.8017 6.78254C58.0017 6.55254 58.1483 6.27587 58.2417 5.95254C58.3383 5.62921 58.3867 5.29587 58.3867 4.95254C58.3867 4.59254 58.3367 4.25087 58.2367 3.92754C58.14 3.60421 57.9917 3.33087 57.7917 3.10754C57.5917 2.88421 57.34 2.74254 57.0367 2.68254C56.9133 2.65587 56.775 2.64087 56.6217 2.63754C56.4683 2.63421 56.3467 2.63254 56.2567 2.63254H55.3067V7.27254Z" fill="white" fill-opacity="0.5"/>
<path d="M60.331 8.55254L62.531 1.35254H64.561L66.761 8.55254H65.361L63.401 2.20254H63.661L61.731 8.55254H60.331ZM61.651 7.05254V5.78254H65.451V7.05254H61.651Z" fill="white" fill-opacity="0.5"/>
<path d="M68.7314 8.55254V2.62254H66.4614V1.35254H72.3614V2.62254H70.0914V8.55254H68.7314Z" fill="white" fill-opacity="0.5"/>
<path d="M72.4696 8.55254L74.6696 1.35254H76.6996L78.8996 8.55254H77.4996L75.5396 2.20254H75.7996L73.8696 8.55254H72.4696ZM73.7896 7.05254V5.78254H77.5896V7.05254H73.7896Z" fill="white" fill-opacity="0.5"/>
<path d="M53.4267 19.5525L55.6267 12.3525H57.6567L59.8567 19.5525H58.4567L56.4967 13.2025H56.7567L54.8267 19.5525H53.4267ZM54.7467 18.0525V16.7825H58.5467V18.0525H54.7467Z" fill="white" fill-opacity="0.5"/>
<path d="M60.7528 19.5525V12.3525H62.1328L65.2628 17.1525V12.3525H66.6428V19.5525H65.2628L62.1328 14.7525V19.5525H60.7528Z" fill="white" fill-opacity="0.5"/>
<path d="M68.038 19.5525V12.3525H69.418L72.548 17.1525V12.3525H73.928V19.5525H72.548L69.418 14.7525V19.5525H68.038Z" fill="white" fill-opacity="0.5"/>
<path d="M78.4131 19.7025C77.6931 19.7025 77.0715 19.5459 76.5481 19.2325C76.0281 18.9192 75.6265 18.4809 75.3431 17.9175C75.0631 17.3542 74.9231 16.6992 74.9231 15.9525C74.9231 15.2059 75.0631 14.5509 75.3431 13.9875C75.6265 13.4242 76.0281 12.9859 76.5481 12.6725C77.0715 12.3592 77.6931 12.2025 78.4131 12.2025C79.1331 12.2025 79.7531 12.3592 80.2731 12.6725C80.7965 12.9859 81.1981 13.4242 81.4781 13.9875C81.7615 14.5509 81.9031 15.2059 81.9031 15.9525C81.9031 16.6992 81.7615 17.3542 81.4781 17.9175C81.1981 18.4809 80.7965 18.9192 80.2731 19.2325C79.7531 19.5459 79.1331 19.7025 78.4131 19.7025ZM78.4131 18.4225C78.8698 18.4292 79.2498 18.3309 79.5531 18.1275C79.8565 17.9242 80.0831 17.6359 80.2331 17.2625C80.3865 16.8892 80.4631 16.4525 80.4631 15.9525C80.4631 15.4525 80.3865 15.0192 80.2331 14.6525C80.0831 14.2859 79.8565 14.0009 79.5531 13.7975C79.2498 13.5942 78.8698 13.4892 78.4131 13.4825C77.9565 13.4759 77.5765 13.5742 77.2731 13.7775C76.9698 13.9809 76.7415 14.2692 76.5881 14.6425C76.4381 15.0159 76.3631 15.4525 76.3631 15.9525C76.3631 16.4525 76.4381 16.8859 76.5881 17.2525C76.7415 17.6192 76.9698 17.9042 77.2731 18.1075C77.5765 18.3109 77.9565 18.4159 78.4131 18.4225Z" fill="white" fill-opacity="0.5"/>
<path d="M84.376 19.5525V13.6225H82.106V12.3525H88.006V13.6225H85.736V19.5525H84.376Z" fill="white" fill-opacity="0.5"/>
<path d="M88.1142 19.5525L90.3142 12.3525H92.3442L94.5442 19.5525H93.1442L91.1842 13.2025H91.4442L89.5142 19.5525H88.1142ZM89.4342 18.0525V16.7825H93.2342V18.0525H89.4342Z" fill="white" fill-opacity="0.5"/>
<path d="M96.5146 19.5525V13.6225H94.2446V12.3525H100.145V13.6225H97.8746V19.5525H96.5146Z" fill="white" fill-opacity="0.5"/>
<path d="M101.048 19.5525V12.3525H102.408V19.5525H101.048Z" fill="white" fill-opacity="0.5"/>
<path d="M106.997 19.7025C106.277 19.7025 105.655 19.5459 105.132 19.2325C104.612 18.9192 104.21 18.4809 103.927 17.9175C103.647 17.3542 103.507 16.6992 103.507 15.9525C103.507 15.2059 103.647 14.5509 103.927 13.9875C104.21 13.4242 104.612 12.9859 105.132 12.6725C105.655 12.3592 106.277 12.2025 106.997 12.2025C107.717 12.2025 108.337 12.3592 108.857 12.6725C109.38 12.9859 109.782 13.4242 110.062 13.9875C110.345 14.5509 110.487 15.2059 110.487 15.9525C110.487 16.6992 110.345 17.3542 110.062 17.9175C109.782 18.4809 109.38 18.9192 108.857 19.2325C108.337 19.5459 107.717 19.7025 106.997 19.7025ZM106.997 18.4225C107.454 18.4292 107.834 18.3309 108.137 18.1275C108.44 17.9242 108.667 17.6359 108.817 17.2625C108.97 16.8892 109.047 16.4525 109.047 15.9525C109.047 15.4525 108.97 15.0192 108.817 14.6525C108.667 14.2859 108.44 14.0009 108.137 13.7975C107.834 13.5942 107.454 13.4892 106.997 13.4825C106.54 13.4759 106.16 13.5742 105.857 13.7775C105.554 13.9809 105.325 14.2692 105.172 14.6425C105.022 15.0159 104.947 15.4525 104.947 15.9525C104.947 16.4525 105.022 16.8859 105.172 17.2525C105.325 17.6192 105.554 17.9042 105.857 18.1075C106.16 18.3109 106.54 18.4159 106.997 18.4225Z" fill="white" fill-opacity="0.5"/>
<path d="M111.485 19.5525V12.3525H112.865L115.995 17.1525V12.3525H117.375V19.5525H115.995L112.865 14.7525V19.5525H111.485Z" fill="white" fill-opacity="0.5"/>
<path d="M55.5967 30.5525V24.6225H53.3267V23.3525H59.2267V24.6225H56.9567V30.5525H55.5967Z" fill="white" fill-opacity="0.5"/>
<path d="M60.0302 30.5525V23.3525H64.7302V24.6225H61.3902V26.1625H64.1302V27.4325H61.3902V29.2825H64.7302V30.5525H60.0302Z" fill="white" fill-opacity="0.5"/>
<path d="M68.7647 30.7025C68.0447 30.7025 67.423 30.5459 66.8997 30.2325C66.3797 29.9192 65.978 29.4809 65.6947 28.9175C65.4147 28.3542 65.2747 27.6992 65.2747 26.9525C65.2747 26.2059 65.4147 25.5509 65.6947 24.9875C65.978 24.4242 66.3797 23.9859 66.8997 23.6725C67.423 23.3592 68.0447 23.2025 68.7647 23.2025C69.5914 23.2025 70.2847 23.4075 70.8447 23.8175C71.408 24.2275 71.8047 24.7825 72.0347 25.4825L70.6647 25.8625C70.5314 25.4259 70.3064 25.0875 69.9897 24.8475C69.673 24.6042 69.2647 24.4825 68.7647 24.4825C68.308 24.4825 67.9264 24.5842 67.6197 24.7875C67.3164 24.9909 67.088 25.2775 66.9347 25.6475C66.7814 26.0175 66.7047 26.4525 66.7047 26.9525C66.7047 27.4525 66.7814 27.8875 66.9347 28.2575C67.088 28.6275 67.3164 28.9142 67.6197 29.1175C67.9264 29.3209 68.308 29.4225 68.7647 29.4225C69.2647 29.4225 69.673 29.3009 69.9897 29.0575C70.3064 28.8142 70.5314 28.4759 70.6647 28.0425L72.0347 28.4225C71.8047 29.1225 71.408 29.6775 70.8447 30.0875C70.2847 30.4975 69.5914 30.7025 68.7647 30.7025Z" fill="white" fill-opacity="0.5"/>
<path d="M73.1356 30.5525V23.3525H74.4956V26.3125H77.7156V23.3525H79.0756V30.5525H77.7156V27.5825H74.4956V30.5525H73.1356Z" fill="white" fill-opacity="0.5"/>
<path d="M24.876 15.7744C24.876 19.1514 24.2266 21.9746 22.9277 24.2441C21.6426 26.5 19.7764 28.2021 17.3291 29.3506C14.8818 30.4854 11.9355 31.0527 8.49023 31.0527H0V1.07031H9.41309C12.5576 1.07031 15.2852 1.63086 17.5957 2.75195C19.9062 3.85938 21.6973 5.50684 22.9688 7.69434C24.2402 9.86816 24.876 12.5615 24.876 15.7744ZM18.2725 15.9385C18.2725 13.7236 17.9443 11.9053 17.2881 10.4834C16.6455 9.04785 15.6885 7.98828 14.417 7.30469C13.1592 6.62109 11.6006 6.2793 9.74121 6.2793H6.35742V25.8027H9.08496C12.1885 25.8027 14.4922 24.9756 15.9961 23.3213C17.5137 21.667 18.2725 19.2061 18.2725 15.9385Z" fill="white"/>
<path fill-rule="evenodd" clip-rule="evenodd" d="M33.6534 18.5527H28.2266V24.5527H35.3746L37.3545 31.0527H44.2041L33.5811 0.947266H28.4308L32.8685 16.0352L33.6534 18.5527Z" fill="white"/>
</svg>
